<svg xmlns="http://www.w3.org/2000/svg" viewBox="0 0 32 32">
  <rect width="32" height="32" rx="7" fill="#0a0a0a"/>
  <defs>
    <clipPath id="qblob">
      <path d="M16,4 C24,4 28,9 28,16 C28,22 22,28 15,28 C10,28 6,24 5,21 C9,16 9,16 5,11 C6,7 11,4 16,4Z"/>
    </clipPath>
    <clipPath id="qgrn">
      <rect x="15.5" y="0" width="16.5" height="32"/>
    </clipPath>
  </defs>
  <path d="M16,4 C24,4 28,9 28,16 C28,22 22,28 15,28 C10,28 6,24 5,21 C9,16 9,16 5,11 C6,7 11,4 16,4Z" fill="white"/>
  <path d="M16,4 C24,4 28,9 28,16 C28,22 22,28 15,28 C10,28 6,24 5,21 C9,16 9,16 5,11 C6,7 11,4 16,4Z" fill="#00C853" clip-path="url(#qgrn)"/>
  <circle cx="17" cy="15" r="7" fill="#0a0a0a" clip-path="url(#qblob)"/>
</svg>
